<mxfile host="Electron" agent="Mozilla/5.0 (Windows NT 10.0; Win64; x64) AppleWebKit/537.36 (KHTML, like Gecko) draw.io/28.0.6 Chrome/138.0.7204.100 Electron/37.2.3 Safari/537.36" version="28.0.6">
  <diagram name="PÃ¡gina-1" id="o3ZfAagTCDhYzGkICCAE">
    <mxGraphModel dx="1857" dy="1201" grid="1" gridSize="10" guides="1" tooltips="1" connect="1" arrows="1" fold="1" page="1" pageScale="1" pageWidth="1169" pageHeight="827" math="0" shadow="0">
      <root>
        <mxCell id="0" />
        <mxCell id="1" parent="0" />
        <mxCell id="SiiVSJo-5GTreBG3eK0S-2" value="" style="rounded=0;whiteSpace=wrap;html=1;dashed=1;" vertex="1" parent="1">
          <mxGeometry x="85" y="200" width="160" height="560" as="geometry" />
        </mxCell>
        <mxCell id="SiiVSJo-5GTreBG3eK0S-18" value="Sources" style="rounded=0;whiteSpace=wrap;html=1;fontStyle=1;fontSize=16;fontFamily=Helvetica;strokeColor=none;" vertex="1" parent="1">
          <mxGeometry x="105" y="180" width="120" height="40" as="geometry" />
        </mxCell>
        <mxCell id="SiiVSJo-5GTreBG3eK0S-21" value="" style="group" vertex="1" connectable="0" parent="1">
          <mxGeometry x="140" y="370" width="76" height="60.88" as="geometry" />
        </mxCell>
        <mxCell id="SiiVSJo-5GTreBG3eK0S-22" value="" style="image;aspect=fixed;html=1;points=[];align=center;fontSize=12;image=img/lib/azure2/general/Folder_Blank.svg;" vertex="1" parent="SiiVSJo-5GTreBG3eK0S-21">
          <mxGeometry width="58.271895543789974" height="47.293401720714755" as="geometry" />
        </mxCell>
        <mxCell id="SiiVSJo-5GTreBG3eK0S-23" value="" style="image;aspect=fixed;html=1;points=[];align=center;fontSize=12;image=img/lib/azure2/general/File.svg;" vertex="1" parent="SiiVSJo-5GTreBG3eK0S-21">
          <mxGeometry x="46.84931506849315" y="26.128841826604898" width="25.9955879108758" height="32.03027796161482" as="geometry" />
        </mxCell>
        <mxCell id="SiiVSJo-5GTreBG3eK0S-24" value="CRM" style="text;strokeColor=none;align=center;fillColor=none;html=1;verticalAlign=middle;whiteSpace=wrap;rounded=0;fontSize=14;fontStyle=1" vertex="1" parent="1">
          <mxGeometry x="140" y="420" width="60" height="30" as="geometry" />
        </mxCell>
        <mxCell id="SiiVSJo-5GTreBG3eK0S-25" value="" style="rounded=0;whiteSpace=wrap;html=1;fillStyle=hatch;fillColor=#FFCC99;strokeColor=#D79B00;" vertex="1" parent="1">
          <mxGeometry x="325" y="240" width="200" height="520" as="geometry" />
        </mxCell>
        <mxCell id="SiiVSJo-5GTreBG3eK0S-29" value="&lt;font style=&quot;font-size: 16px;&quot;&gt;&lt;b style=&quot;&quot;&gt;Bronze Layer&lt;/b&gt;&lt;/font&gt;" style="rounded=0;whiteSpace=wrap;html=1;fillColor=#FFCC99;strokeColor=#D79B00;" vertex="1" parent="1">
          <mxGeometry x="325" y="200" width="200" height="40" as="geometry" />
        </mxCell>
        <mxCell id="SiiVSJo-5GTreBG3eK0S-63" style="edgeStyle=orthogonalEdgeStyle;rounded=0;orthogonalLoop=1;jettySize=auto;html=1;" edge="1" parent="1" source="SiiVSJo-5GTreBG3eK0S-30" target="SiiVSJo-5GTreBG3eK0S-49">
          <mxGeometry relative="1" as="geometry" />
        </mxCell>
        <mxCell id="SiiVSJo-5GTreBG3eK0S-30" value="&lt;font style=&quot;font-size: 14px;&quot;&gt;crm_sales_details&lt;/font&gt;" style="rounded=0;whiteSpace=wrap;html=1;fillColor=#ffcc99;strokeColor=#D79B00;" vertex="1" parent="1">
          <mxGeometry x="335" y="320" width="180" height="40" as="geometry" />
        </mxCell>
        <mxCell id="SiiVSJo-5GTreBG3eK0S-64" style="edgeStyle=orthogonalEdgeStyle;rounded=0;orthogonalLoop=1;jettySize=auto;html=1;entryX=0;entryY=0.5;entryDx=0;entryDy=0;" edge="1" parent="1" source="SiiVSJo-5GTreBG3eK0S-31" target="SiiVSJo-5GTreBG3eK0S-50">
          <mxGeometry relative="1" as="geometry" />
        </mxCell>
        <mxCell id="SiiVSJo-5GTreBG3eK0S-31" value="&lt;font style=&quot;font-size: 14px;&quot;&gt;crm_cust_info&lt;/font&gt;" style="rounded=0;whiteSpace=wrap;html=1;fillColor=#ffcc99;strokeColor=#D79B00;" vertex="1" parent="1">
          <mxGeometry x="335" y="370" width="180" height="40" as="geometry" />
        </mxCell>
        <mxCell id="SiiVSJo-5GTreBG3eK0S-65" style="edgeStyle=orthogonalEdgeStyle;rounded=0;orthogonalLoop=1;jettySize=auto;html=1;entryX=0;entryY=0.5;entryDx=0;entryDy=0;" edge="1" parent="1" source="SiiVSJo-5GTreBG3eK0S-32" target="SiiVSJo-5GTreBG3eK0S-51">
          <mxGeometry relative="1" as="geometry" />
        </mxCell>
        <mxCell id="SiiVSJo-5GTreBG3eK0S-32" value="&lt;font style=&quot;font-size: 14px;&quot;&gt;crm_prd_info&lt;/font&gt;" style="rounded=0;whiteSpace=wrap;html=1;fillColor=#ffcc99;strokeColor=#D79B00;" vertex="1" parent="1">
          <mxGeometry x="335" y="420" width="180" height="40" as="geometry" />
        </mxCell>
        <mxCell id="SiiVSJo-5GTreBG3eK0S-66" style="edgeStyle=orthogonalEdgeStyle;rounded=0;orthogonalLoop=1;jettySize=auto;html=1;entryX=0;entryY=0.5;entryDx=0;entryDy=0;" edge="1" parent="1" source="SiiVSJo-5GTreBG3eK0S-33" target="SiiVSJo-5GTreBG3eK0S-52">
          <mxGeometry relative="1" as="geometry" />
        </mxCell>
        <mxCell id="SiiVSJo-5GTreBG3eK0S-33" value="&lt;font style=&quot;font-size: 14px;&quot;&gt;erp_cust_az12&lt;/font&gt;" style="rounded=0;whiteSpace=wrap;html=1;fillColor=#ffcc99;strokeColor=#D79B00;" vertex="1" parent="1">
          <mxGeometry x="335" y="550.44" width="180" height="40" as="geometry" />
        </mxCell>
        <mxCell id="SiiVSJo-5GTreBG3eK0S-67" style="edgeStyle=orthogonalEdgeStyle;rounded=0;orthogonalLoop=1;jettySize=auto;html=1;entryX=0;entryY=0.5;entryDx=0;entryDy=0;" edge="1" parent="1" source="SiiVSJo-5GTreBG3eK0S-34" target="SiiVSJo-5GTreBG3eK0S-53">
          <mxGeometry relative="1" as="geometry" />
        </mxCell>
        <mxCell id="SiiVSJo-5GTreBG3eK0S-34" value="&lt;font style=&quot;font-size: 14px;&quot;&gt;erp_loc_a101&lt;/font&gt;" style="rounded=0;whiteSpace=wrap;html=1;fillColor=#ffcc99;strokeColor=#D79B00;" vertex="1" parent="1">
          <mxGeometry x="335" y="600.44" width="180" height="40" as="geometry" />
        </mxCell>
        <mxCell id="SiiVSJo-5GTreBG3eK0S-68" style="edgeStyle=orthogonalEdgeStyle;rounded=0;orthogonalLoop=1;jettySize=auto;html=1;entryX=0;entryY=0.5;entryDx=0;entryDy=0;" edge="1" parent="1" source="SiiVSJo-5GTreBG3eK0S-35" target="SiiVSJo-5GTreBG3eK0S-54">
          <mxGeometry relative="1" as="geometry" />
        </mxCell>
        <mxCell id="SiiVSJo-5GTreBG3eK0S-35" value="&lt;font style=&quot;font-size: 14px;&quot;&gt;erp_px_cat_g1v2&lt;/font&gt;" style="rounded=0;whiteSpace=wrap;html=1;fillColor=#ffcc99;strokeColor=#D79B00;" vertex="1" parent="1">
          <mxGeometry x="335" y="650.44" width="180" height="40" as="geometry" />
        </mxCell>
        <mxCell id="SiiVSJo-5GTreBG3eK0S-47" value="" style="rounded=0;whiteSpace=wrap;html=1;fillStyle=hatch;fillColor=#eeeeee;strokeColor=light-dark(#828690,#BABDC0);" vertex="1" parent="1">
          <mxGeometry x="605" y="240" width="200" height="520" as="geometry" />
        </mxCell>
        <mxCell id="SiiVSJo-5GTreBG3eK0S-48" value="&lt;span style=&quot;font-size: 16px;&quot;&gt;&lt;b&gt;Silver Layer&lt;/b&gt;&lt;/span&gt;" style="rounded=0;whiteSpace=wrap;html=1;fillColor=#eeeeee;strokeColor=light-dark(#828690,#BABDC0);" vertex="1" parent="1">
          <mxGeometry x="605" y="200" width="200" height="40" as="geometry" />
        </mxCell>
        <mxCell id="SiiVSJo-5GTreBG3eK0S-49" value="&lt;font style=&quot;font-size: 14px;&quot;&gt;crm_sales_details&lt;/font&gt;" style="rounded=0;whiteSpace=wrap;html=1;fillColor=#eeeeee;strokeColor=light-dark(#828690,#BABDC0);" vertex="1" parent="1">
          <mxGeometry x="615" y="320" width="180" height="40" as="geometry" />
        </mxCell>
        <mxCell id="SiiVSJo-5GTreBG3eK0S-50" value="&lt;font style=&quot;font-size: 14px;&quot;&gt;crm_cust_info&lt;/font&gt;" style="rounded=0;whiteSpace=wrap;html=1;fillColor=#eeeeee;strokeColor=light-dark(#828690,#BABDC0);" vertex="1" parent="1">
          <mxGeometry x="615" y="370" width="180" height="40" as="geometry" />
        </mxCell>
        <mxCell id="SiiVSJo-5GTreBG3eK0S-51" value="&lt;font style=&quot;font-size: 14px;&quot;&gt;crm_prd_info&lt;/font&gt;" style="rounded=0;whiteSpace=wrap;html=1;fillColor=#eeeeee;strokeColor=light-dark(#828690,#BABDC0);" vertex="1" parent="1">
          <mxGeometry x="615" y="420" width="180" height="40" as="geometry" />
        </mxCell>
        <mxCell id="SiiVSJo-5GTreBG3eK0S-52" value="&lt;font style=&quot;font-size: 14px;&quot;&gt;erp_cust_az12&lt;/font&gt;" style="rounded=0;whiteSpace=wrap;html=1;fillColor=#eeeeee;strokeColor=light-dark(#828690,#BABDC0);" vertex="1" parent="1">
          <mxGeometry x="615" y="550.44" width="180" height="40" as="geometry" />
        </mxCell>
        <mxCell id="SiiVSJo-5GTreBG3eK0S-53" value="&lt;font style=&quot;font-size: 14px;&quot;&gt;erp_loc_a101&lt;/font&gt;" style="rounded=0;whiteSpace=wrap;html=1;fillColor=#eeeeee;strokeColor=light-dark(#828690,#BABDC0);" vertex="1" parent="1">
          <mxGeometry x="615" y="600.44" width="180" height="40" as="geometry" />
        </mxCell>
        <mxCell id="SiiVSJo-5GTreBG3eK0S-54" value="&lt;font style=&quot;font-size: 14px;&quot;&gt;erp_px_cat_g1v2&lt;/font&gt;" style="rounded=0;whiteSpace=wrap;html=1;fillColor=#eeeeee;strokeColor=light-dark(#828690,#BABDC0);" vertex="1" parent="1">
          <mxGeometry x="615" y="650.44" width="180" height="40" as="geometry" />
        </mxCell>
        <mxCell id="SiiVSJo-5GTreBG3eK0S-55" value="" style="rounded=0;whiteSpace=wrap;html=1;fillStyle=hatch;fillColor=#F9DF7F;strokeColor=light-dark(#F4C736,#D4AF37);" vertex="1" parent="1">
          <mxGeometry x="885" y="240" width="200" height="520" as="geometry" />
        </mxCell>
        <mxCell id="SiiVSJo-5GTreBG3eK0S-56" value="&lt;span style=&quot;font-size: 16px;&quot;&gt;&lt;b&gt;Gold Layer&lt;/b&gt;&lt;/span&gt;" style="rounded=0;whiteSpace=wrap;html=1;fillColor=#F9DF7F;strokeColor=light-dark(#F4C736,#D4AF37);" vertex="1" parent="1">
          <mxGeometry x="885" y="200" width="200" height="40" as="geometry" />
        </mxCell>
        <mxCell id="SiiVSJo-5GTreBG3eK0S-57" value="&lt;font style=&quot;font-size: 14px;&quot;&gt;fact_sales&lt;/font&gt;" style="rounded=0;whiteSpace=wrap;html=1;fillColor=#F9DF7F;strokeColor=light-dark(#F4C736,#D4AF37);" vertex="1" parent="1">
          <mxGeometry x="895" y="360.44" width="180" height="40" as="geometry" />
        </mxCell>
        <mxCell id="SiiVSJo-5GTreBG3eK0S-58" value="&lt;font style=&quot;font-size: 14px;&quot;&gt;dim_customers&lt;/font&gt;" style="rounded=0;whiteSpace=wrap;html=1;fillColor=#F9DF7F;strokeColor=light-dark(#F4C736,#D4AF37);" vertex="1" parent="1">
          <mxGeometry x="895" y="480" width="180" height="40" as="geometry" />
        </mxCell>
        <mxCell id="SiiVSJo-5GTreBG3eK0S-59" value="&lt;font style=&quot;font-size: 14px;&quot;&gt;dim_products&lt;/font&gt;" style="rounded=0;whiteSpace=wrap;html=1;fillColor=#F9DF7F;strokeColor=light-dark(#F4C736,#D4AF37);" vertex="1" parent="1">
          <mxGeometry x="895" y="600" width="180" height="40" as="geometry" />
        </mxCell>
        <mxCell id="SiiVSJo-5GTreBG3eK0S-75" value="" style="endArrow=classic;html=1;rounded=0;entryX=0;entryY=0.5;entryDx=0;entryDy=0;exitX=1;exitY=0.5;exitDx=0;exitDy=0;" edge="1" parent="1" source="SiiVSJo-5GTreBG3eK0S-50" target="SiiVSJo-5GTreBG3eK0S-58">
          <mxGeometry width="50" height="50" relative="1" as="geometry">
            <mxPoint x="805" y="560" as="sourcePoint" />
            <mxPoint x="855" y="510" as="targetPoint" />
          </mxGeometry>
        </mxCell>
        <mxCell id="SiiVSJo-5GTreBG3eK0S-76" value="" style="endArrow=classic;html=1;rounded=0;entryX=0;entryY=0.5;entryDx=0;entryDy=0;exitX=1;exitY=0.5;exitDx=0;exitDy=0;" edge="1" parent="1" source="SiiVSJo-5GTreBG3eK0S-53" target="SiiVSJo-5GTreBG3eK0S-58">
          <mxGeometry width="50" height="50" relative="1" as="geometry">
            <mxPoint x="835" y="540" as="sourcePoint" />
            <mxPoint x="935" y="650" as="targetPoint" />
          </mxGeometry>
        </mxCell>
        <mxCell id="SiiVSJo-5GTreBG3eK0S-77" value="" style="endArrow=classic;html=1;rounded=0;entryX=0;entryY=0.5;entryDx=0;entryDy=0;exitX=1;exitY=0.5;exitDx=0;exitDy=0;" edge="1" parent="1" source="SiiVSJo-5GTreBG3eK0S-52" target="SiiVSJo-5GTreBG3eK0S-58">
          <mxGeometry width="50" height="50" relative="1" as="geometry">
            <mxPoint x="715" y="730" as="sourcePoint" />
            <mxPoint x="815" y="610" as="targetPoint" />
          </mxGeometry>
        </mxCell>
        <mxCell id="SiiVSJo-5GTreBG3eK0S-78" value="" style="endArrow=classic;html=1;rounded=0;entryX=0;entryY=0.5;entryDx=0;entryDy=0;exitX=1;exitY=0.5;exitDx=0;exitDy=0;" edge="1" parent="1" source="SiiVSJo-5GTreBG3eK0S-51" target="SiiVSJo-5GTreBG3eK0S-59">
          <mxGeometry width="50" height="50" relative="1" as="geometry">
            <mxPoint x="755" y="600" as="sourcePoint" />
            <mxPoint x="855" y="710" as="targetPoint" />
          </mxGeometry>
        </mxCell>
        <mxCell id="SiiVSJo-5GTreBG3eK0S-79" value="" style="endArrow=classic;html=1;rounded=0;entryX=0;entryY=0.5;entryDx=0;entryDy=0;exitX=1;exitY=0.5;exitDx=0;exitDy=0;" edge="1" parent="1" source="SiiVSJo-5GTreBG3eK0S-54" target="SiiVSJo-5GTreBG3eK0S-59">
          <mxGeometry width="50" height="50" relative="1" as="geometry">
            <mxPoint x="895" y="640" as="sourcePoint" />
            <mxPoint x="995" y="750" as="targetPoint" />
          </mxGeometry>
        </mxCell>
        <mxCell id="SiiVSJo-5GTreBG3eK0S-80" value="" style="endArrow=classic;html=1;rounded=0;entryX=0;entryY=0.5;entryDx=0;entryDy=0;exitX=1;exitY=0.5;exitDx=0;exitDy=0;" edge="1" parent="1" source="SiiVSJo-5GTreBG3eK0S-49" target="SiiVSJo-5GTreBG3eK0S-57">
          <mxGeometry width="50" height="50" relative="1" as="geometry">
            <mxPoint x="615" y="230" as="sourcePoint" />
            <mxPoint x="715" y="340" as="targetPoint" />
          </mxGeometry>
        </mxCell>
        <mxCell id="SiiVSJo-5GTreBG3eK0S-81" value="" style="endArrow=none;html=1;rounded=0;strokeWidth=1;" edge="1" parent="1">
          <mxGeometry width="50" height="50" relative="1" as="geometry">
            <mxPoint y="170" as="sourcePoint" />
            <mxPoint x="1170" y="170" as="targetPoint" />
          </mxGeometry>
        </mxCell>
        <mxCell id="SiiVSJo-5GTreBG3eK0S-83" value="&lt;b&gt;&lt;font style=&quot;font-size: 32px;&quot;&gt;Data Flow&lt;/font&gt;&lt;/b&gt;" style="rounded=0;whiteSpace=wrap;html=1;strokeColor=default;" vertex="1" parent="1">
          <mxGeometry x="485" y="80" width="200" height="60" as="geometry" />
        </mxCell>
        <mxCell id="SiiVSJo-5GTreBG3eK0S-91" style="edgeStyle=orthogonalEdgeStyle;rounded=0;orthogonalLoop=1;jettySize=auto;html=1;entryX=0;entryY=0.5;entryDx=0;entryDy=0;" edge="1" parent="1" source="SiiVSJo-5GTreBG3eK0S-22" target="SiiVSJo-5GTreBG3eK0S-30">
          <mxGeometry relative="1" as="geometry">
            <Array as="points">
              <mxPoint x="267" y="390" />
              <mxPoint x="267" y="340" />
            </Array>
          </mxGeometry>
        </mxCell>
        <mxCell id="SiiVSJo-5GTreBG3eK0S-92" style="edgeStyle=orthogonalEdgeStyle;rounded=0;orthogonalLoop=1;jettySize=auto;html=1;entryX=0;entryY=0.5;entryDx=0;entryDy=0;" edge="1" parent="1" source="SiiVSJo-5GTreBG3eK0S-22" target="SiiVSJo-5GTreBG3eK0S-32">
          <mxGeometry relative="1" as="geometry">
            <Array as="points">
              <mxPoint x="267" y="390" />
              <mxPoint x="267" y="440" />
            </Array>
          </mxGeometry>
        </mxCell>
        <mxCell id="SiiVSJo-5GTreBG3eK0S-93" value="" style="endArrow=classic;html=1;rounded=0;entryX=0;entryY=0.5;entryDx=0;entryDy=0;" edge="1" parent="1" target="SiiVSJo-5GTreBG3eK0S-31">
          <mxGeometry width="50" height="50" relative="1" as="geometry">
            <mxPoint x="260" y="390" as="sourcePoint" />
            <mxPoint x="750" y="280" as="targetPoint" />
          </mxGeometry>
        </mxCell>
        <mxCell id="SiiVSJo-5GTreBG3eK0S-94" value="" style="group" vertex="1" connectable="0" parent="1">
          <mxGeometry x="140" y="600" width="76" height="60.88" as="geometry" />
        </mxCell>
        <mxCell id="SiiVSJo-5GTreBG3eK0S-95" value="" style="image;aspect=fixed;html=1;points=[];align=center;fontSize=12;image=img/lib/azure2/general/Folder_Blank.svg;" vertex="1" parent="SiiVSJo-5GTreBG3eK0S-94">
          <mxGeometry width="58.271895543789974" height="47.293401720714755" as="geometry" />
        </mxCell>
        <mxCell id="SiiVSJo-5GTreBG3eK0S-96" value="" style="image;aspect=fixed;html=1;points=[];align=center;fontSize=12;image=img/lib/azure2/general/File.svg;" vertex="1" parent="SiiVSJo-5GTreBG3eK0S-94">
          <mxGeometry x="46.84931506849315" y="26.128841826604898" width="25.9955879108758" height="32.03027796161482" as="geometry" />
        </mxCell>
        <mxCell id="SiiVSJo-5GTreBG3eK0S-97" value="ERP" style="text;strokeColor=none;align=center;fillColor=none;html=1;verticalAlign=middle;whiteSpace=wrap;rounded=0;fontSize=14;fontStyle=1" vertex="1" parent="1">
          <mxGeometry x="140" y="650" width="60" height="30" as="geometry" />
        </mxCell>
        <mxCell id="SiiVSJo-5GTreBG3eK0S-98" style="edgeStyle=orthogonalEdgeStyle;rounded=0;orthogonalLoop=1;jettySize=auto;html=1;entryX=0;entryY=0.5;entryDx=0;entryDy=0;" edge="1" parent="1" source="SiiVSJo-5GTreBG3eK0S-95">
          <mxGeometry relative="1" as="geometry">
            <mxPoint x="335" y="570" as="targetPoint" />
            <Array as="points">
              <mxPoint x="267" y="620" />
              <mxPoint x="267" y="570" />
            </Array>
          </mxGeometry>
        </mxCell>
        <mxCell id="SiiVSJo-5GTreBG3eK0S-99" style="edgeStyle=orthogonalEdgeStyle;rounded=0;orthogonalLoop=1;jettySize=auto;html=1;entryX=0;entryY=0.5;entryDx=0;entryDy=0;" edge="1" parent="1" source="SiiVSJo-5GTreBG3eK0S-95">
          <mxGeometry relative="1" as="geometry">
            <mxPoint x="335" y="670" as="targetPoint" />
            <Array as="points">
              <mxPoint x="267" y="620" />
              <mxPoint x="267" y="670" />
            </Array>
          </mxGeometry>
        </mxCell>
        <mxCell id="SiiVSJo-5GTreBG3eK0S-100" value="" style="endArrow=classic;html=1;rounded=0;entryX=0;entryY=0.5;entryDx=0;entryDy=0;" edge="1" parent="1">
          <mxGeometry width="50" height="50" relative="1" as="geometry">
            <mxPoint x="260" y="620" as="sourcePoint" />
            <mxPoint x="335" y="620" as="targetPoint" />
          </mxGeometry>
        </mxCell>
      </root>
    </mxGraphModel>
  </diagram>
</mxfile>
